<?xml version="1.0" standalone="no"?>
<!DOCTYPE svg PUBLIC "-//W3C//DTD SVG 20010904//EN"
 "http://www.w3.org/TR/2001/REC-SVG-20010904/DTD/svg10.dtd">
<svg version="1.0" xmlns="http://www.w3.org/2000/svg"
 width="190.000000pt" height="190.000000pt" viewBox="0 0 190.000000 190.000000"
 preserveAspectRatio="xMidYMid meet">
<metadata>
Created by potrace 1.11, written by Peter Selinger 2001-2013
</metadata>
<g transform="translate(0.000000,190.000000) scale(0.100000,-0.100000)"
fill="#000000" stroke="none">
<path d="M1115 1504 c-33 -8 -74 -21 -92 -29 -17 -8 -34 -15 -38 -15 -15 0
-131 -89 -165 -126 -81 -89 -135 -212 -146 -333 l-7 -69 69 -21 c58 -17 117
-34 169 -47 16 -4 205 -44 234 -49 157 -29 349 -60 426 -70 21 -2 103 -13 166
-21 35 -4 37 -3 54 38 27 67 36 187 22 283 -30 200 -189 384 -386 446 -84 27
-224 32 -306 13z"/>
<path d="M336 1285 c-11 -8 -15 -15 -9 -15 19 0 43 12 43 21 0 13 -12 11 -34
-6z"/>
<path d="M540 1276 c-128 -26 -197 -116 -151 -193 25 -39 90 -84 164 -112 32
-11 59 -21 61 -21 1 0 3 16 4 35 2 53 30 161 56 218 13 29 25 56 27 61 8 18
-92 26 -161 12z"/>
<path d="M255 1220 c-14 -16 -15 -20 -4 -20 16 0 39 19 39 32 0 14 -16 9 -35
-12z"/>
<path d="M211 1116 c0 -12 4 -30 8 -40 10 -26 22 -6 19 32 -2 32 -28 40 -27 8z"/>
<path d="M100 990 c-18 -74 -19 -156 -2 -220 52 -206 253 -347 465 -327 67 6
157 37 196 66 l23 18 -37 49 c-21 27 -42 59 -48 71 -6 15 -42 34 -116 63 -239
96 -394 194 -442 284 l-26 48 -13 -52z"/>
<path d="M275 1001 c-3 -5 9 -23 27 -40 25 -23 35 -28 46 -18 11 9 8 16 -20
39 -36 30 -44 33 -53 19z"/>
<path d="M447 893 c-4 -3 -7 -10 -7 -15 0 -9 149 -82 155 -76 2 1 5 11 7 21 2
14 -13 25 -67 47 -75 32 -78 33 -88 23z"/>
<path d="M706 784 c-3 -9 -6 -18 -6 -20 0 -6 37 -20 127 -48 l71 -23 13 23 c7
13 10 26 7 29 -6 7 -178 55 -194 55 -7 0 -15 -7 -18 -16z"/>
<path d="M1041 693 c-14 -30 -9 -39 26 -46 16 -3 63 -14 106 -25 l79 -20 13
32 c8 17 11 34 7 37 -4 3 -47 13 -97 23 -49 10 -97 19 -106 21 -10 2 -21 -7
-28 -22z"/>
<path d="M1406 621 c-9 -16 -16 -34 -16 -40 0 -5 55 -19 122 -32 l122 -22 33
38 c18 21 32 39 31 41 -2 1 -28 5 -58 9 -96 13 -135 19 -192 31 -22 4 -29 0
-42 -25z"/>
<path d="M770 631 c0 -33 183 -186 245 -204 11 -3 40 -13 65 -22 102 -38 301
-25 399 25 l35 17 -35 11 c-19 6 -52 13 -74 17 -104 17 -497 119 -578 150 -43
17 -57 19 -57 6z"/>
</g>
</svg>
